<svg width="48" height="47" viewBox="0 0 48 47" fill="none" xmlns="http://www.w3.org/2000/svg">
<g clip-path="url(#clip0_1_2)">
<mask id="mask0_1_2" style="mask-type:luminance" maskUnits="userSpaceOnUse" x="0" y="-1" width="48" height="48">
<path d="M48 -1H0V47H48V-1Z" fill="white"/>
</mask>
<g mask="url(#mask0_1_2)">
<path d="M0 14.5792C0 8.35769 3.83632 2.74813 9.87831 1.26425C19.9862 -1.2182 35.2427 -3.26324 42.753 4.24707C49.0925 10.5867 48.6236 22.4456 46.8302 32.0683C45.1204 41.2426 36.587 47 27.2548 47H7.5C3.35787 47 0 43.6421 0 39.5V14.5792Z" fill="#FE705A"/>
</g>
<path d="M15.8438 19.2656C16.0833 19.0885 16.2969 18.875 16.4844 18.625C16.6823 18.375 16.849 18.1042 16.9844 17.8125C17.1198 17.5208 17.224 17.2135 17.2969 16.8906C17.3698 16.5677 17.4062 16.2396 17.4062 15.9062C17.4062 15.4062 17.3177 14.9115 17.1406 14.4219C16.974 13.9219 16.6979 13.474 16.3125 13.0781C15.9375 12.6719 15.4479 12.3438 14.8438 12.0938C14.2396 11.8438 13.5052 11.7188 12.6406 11.7188C11.6823 11.7188 10.776 11.875 9.92188 12.1875C9.06771 12.5 8.31771 12.9219 7.67188 13.4531C7.03646 13.9844 6.53125 14.599 6.15625 15.2969C5.78125 15.9948 5.59375 16.724 5.59375 17.4844C5.59375 18.2865 5.78125 19 6.15625 19.625C6.54167 20.2396 7.04167 20.8021 7.65625 21.3125C8.28125 21.8125 8.98958 22.276 9.78125 22.7031C10.5729 23.1302 11.3802 23.5521 12.2031 23.9688C13.026 24.3854 13.8333 24.8229 14.625 25.2812C15.4167 25.7292 16.1198 26.2344 16.7344 26.7969C17.3594 27.3594 17.8594 27.9896 18.2344 28.6875C18.6198 29.3854 18.8125 30.1927 18.8125 31.1094C18.8125 31.9844 18.6042 32.8229 18.1875 33.625C17.7708 34.4271 17.1979 35.1406 16.4688 35.7656C15.7396 36.3802 14.8802 36.8698 13.8906 37.2344C12.9115 37.6094 11.8542 37.7969 10.7188 37.7969C9.44792 37.7969 8.39583 37.6562 7.5625 37.375C6.73958 37.1042 6.08333 36.7604 5.59375 36.3438C5.11458 35.9271 4.78125 35.4792 4.59375 35C4.40625 34.5104 4.3125 34.0573 4.3125 33.6406C4.3125 33.1302 4.39062 32.6719 4.54688 32.2656C4.71354 31.849 4.93229 31.4792 5.20312 31.1562C5.47396 30.8229 5.77604 30.5365 6.10938 30.2969C6.45312 30.0469 6.80208 29.8385 7.15625 29.6719C7.52083 29.4948 7.86979 29.3542 8.20312 29.25C8.54688 29.1354 8.85417 29.0521 9.125 29L9.28125 29.7969C9.15625 29.8385 8.92708 29.9427 8.59375 30.1094C8.27083 30.2656 7.93229 30.5 7.57812 30.8125C7.22396 31.1146 6.91146 31.4948 6.64062 31.9531C6.36979 32.4115 6.23438 32.9531 6.23438 33.5781C6.23438 34.0052 6.32292 34.4219 6.5 34.8281C6.6875 35.2344 6.96354 35.599 7.32812 35.9219C7.69271 36.2448 8.14062 36.5052 8.67188 36.7031C9.20312 36.901 9.82292 37 10.5312 37C11.3854 37 12.1302 36.9219 12.7656 36.7656C13.4115 36.599 13.9635 36.3854 14.4219 36.125C14.8906 35.8646 15.2708 35.5677 15.5625 35.2344C15.8646 34.8906 16.099 34.5365 16.2656 34.1719C16.4427 33.8073 16.5625 33.4479 16.625 33.0938C16.6979 32.7292 16.7344 32.401 16.7344 32.1094C16.7344 31.3177 16.5521 30.625 16.1875 30.0312C15.8229 29.4271 15.3385 28.8906 14.7344 28.4219C14.1406 27.9427 13.4635 27.5104 12.7031 27.125C11.9427 26.7292 11.1615 26.3385 10.3594 25.9531C9.56771 25.5677 8.79167 25.1667 8.03125 24.75C7.27083 24.3333 6.58854 23.8594 5.98438 23.3281C5.39062 22.7969 4.91146 22.1927 4.54688 21.5156C4.18229 20.8281 4 20.026 4 19.1094C4 17.8802 4.25521 16.7552 4.76562 15.7344C5.27604 14.7031 5.96354 13.8229 6.82812 13.0938C7.69271 12.3542 8.69271 11.7812 9.82812 11.375C10.974 10.9688 12.1771 10.7656 13.4375 10.7656C14.5104 10.7656 15.4271 10.8906 16.1875 11.1406C16.9479 11.3906 17.5677 11.7188 18.0469 12.125C18.5365 12.5312 18.8906 12.9948 19.1094 13.5156C19.3385 14.0365 19.4531 14.5677 19.4531 15.1094C19.4531 15.7552 19.3385 16.3438 19.1094 16.875C18.8906 17.4062 18.6198 17.8802 18.2969 18.2969C17.9844 18.7031 17.6458 19.0469 17.2812 19.3281C16.9167 19.599 16.5938 19.7917 16.3125 19.9062L15.8438 19.2656Z" fill="white"/>
<path d="M30.3125 33.3125C30.1979 34.125 30.0312 34.8177 29.8125 35.3906C29.5938 35.9531 29.3281 36.4167 29.0156 36.7812C28.7031 37.1354 28.3438 37.3906 27.9375 37.5469C27.5417 37.7135 27.1042 37.7969 26.625 37.7969C25.9479 37.7969 25.3125 37.599 24.7188 37.2031C24.1354 36.8073 23.6302 36.2188 23.2031 35.4375C22.776 34.6562 22.4375 33.6875 22.1875 32.5312C21.9479 31.375 21.8281 30.0365 21.8281 28.5156C21.8281 26.9219 21.9792 25.375 22.2812 23.875C22.5938 22.375 23.0312 20.9688 23.5938 19.6562C24.1667 18.3438 24.849 17.1458 25.6406 16.0625C26.4427 14.9688 27.3333 14.0365 28.3125 13.2656C29.3021 12.4844 30.3698 11.8802 31.5156 11.4531C32.6615 11.0156 33.8594 10.7969 35.1094 10.7969C36.1823 10.7969 37.1615 10.9583 38.0469 11.2812C38.9323 11.6042 39.6927 12.0521 40.3281 12.625C40.9635 13.1979 41.4531 13.875 41.7969 14.6562C42.1406 15.4375 42.3125 16.2812 42.3125 17.1875C42.3125 18.2812 42.1615 19.3021 41.8594 20.25C41.5573 21.1875 41.1354 22.0469 40.5938 22.8281C40.0625 23.6094 39.4271 24.3073 38.6875 24.9219C37.9479 25.5365 37.1406 26.0573 36.2656 26.4844C35.401 26.9115 34.4844 27.2448 33.5156 27.4844C32.5573 27.7135 31.5833 27.8438 30.5938 27.875C30.5625 29.1771 30.526 30.276 30.4844 31.1719C30.4531 32.0573 30.3958 32.7708 30.3125 33.3125ZM27.5938 26.7656C27.6458 26.7865 27.7083 26.8073 27.7812 26.8281C27.8438 26.849 27.9167 26.8698 28 26.8906C28.0938 26.9115 28.2031 26.9323 28.3281 26.9531C28.3073 25.651 28.2812 24.4583 28.25 23.375C28.2292 22.2812 28.2031 21.3281 28.1719 20.5156C28.1302 19.5677 28.0938 18.7135 28.0625 17.9531C28.1354 17.8906 28.2188 17.8385 28.3125 17.7969C28.3958 17.7552 28.4948 17.7188 28.6094 17.6875C28.724 17.6562 28.8646 17.6406 29.0312 17.6406C29.5104 17.6406 29.8958 17.7292 30.1875 17.9062C30.4792 18.0729 30.625 18.3594 30.625 18.7656C30.625 20.4844 30.625 22.026 30.625 23.3906C30.625 24.7552 30.6146 25.9844 30.5938 27.0781C31.9583 27.0781 33.1927 26.8177 34.2969 26.2969C35.4115 25.776 36.3594 25.0833 37.1406 24.2188C37.9219 23.3438 38.526 22.3385 38.9531 21.2031C39.3802 20.0677 39.5938 18.8802 39.5938 17.6406C39.5938 16.849 39.4844 16.099 39.2656 15.3906C39.0573 14.6719 38.7344 14.0469 38.2969 13.5156C37.8594 12.974 37.3073 12.5469 36.6406 12.2344C35.9844 11.9115 35.2083 11.75 34.3125 11.75C33.4062 11.75 32.5104 11.9219 31.625 12.2656C30.75 12.6094 29.9115 13.125 29.1094 13.8125C28.3177 14.5 27.5833 15.3542 26.9062 16.375C26.2396 17.3958 25.6562 18.5885 25.1562 19.9531C24.6667 21.3177 24.2812 22.849 24 24.5469C23.7292 26.2344 23.5938 28.0938 23.5938 30.125C23.5938 31 23.6354 31.8542 23.7188 32.6875C23.8125 33.5104 23.9635 34.2448 24.1719 34.8906C24.3802 35.526 24.6562 36.0365 25 36.4219C25.3542 36.8073 25.7917 37 26.3125 37C26.5938 37 26.8594 36.9427 27.1094 36.8281C27.3594 36.7135 27.5781 36.4792 27.7656 36.125C27.9531 35.7604 28.1042 35.2448 28.2188 34.5781C28.3333 33.901 28.3906 33 28.3906 31.875C28.3906 31.1667 28.3854 30.4688 28.375 29.7812C28.3646 29.0833 28.3594 28.4062 28.3594 27.75C28.2031 27.7292 28.0677 27.7031 27.9531 27.6719C27.8385 27.6406 27.7396 27.6146 27.6562 27.5938C27.5625 27.5625 27.4844 27.5312 27.4219 27.5L27.5938 26.7656Z" fill="white"/>
</g>
<defs>
<clipPath id="clip0_1_2">
<rect width="48" height="47" fill="white"/>
</clipPath>
</defs>
</svg>
